<svg width="0" height="0" class="hidden">
    <!--Flèche situé dans les boutons-->
    <symbol id="arrow_circle_right" aria-hidden="true" data-prefix="far" data-icon="arrow-alt-circle-right" xmlns="http://www.w3.org/2000/svg" viewBox="0 0 512 512">
        <path fill="currentColor" d="M504 256C504 119 393 8 256 8S8 119 8 256s111 248 248 248 248-111 248-248zm-448 0c0-110.5 89.5-200 200-200s200 89.5 200 200-89.5 200-200 200S56 366.5 56 256zm72 20v-40c0-6.6 5.4-12 12-12h116v-67c0-10.7 12.9-16 20.5-8.5l99 99c4.7 4.7 4.7 12.3 0 17l-99 99c-7.6 7.6-20.5 2.2-20.5-8.5v-67H140c-6.6 0-12-5.4-12-12z"/>
    </symbol>
    <!--Logo Facebook-->
    <symbol id="facebook" width="21" height="21" fill="none" xmlns="http://www.w3.org/2000/svg">
        <path d="M10.14 21c5.6 0 10.139-4.701 10.139-10.5S15.739 0 10.139 0C4.54 0 0 4.701 0 10.5S4.54 21 10.14 21z" fill="#272EAE"/>
        <path d="M9.15 16.46v-5.078H7.4V9.365H9.15v-1.59c0-1.727 1.088-2.667 2.675-2.667.76 0 1.413.055 1.603.08v1.804h-1.1c-.864 0-1.03.4-1.03.983v1.39h1.947l-.267 2.017h-1.68v5.077" fill="#fff"/>
        <mask id="a" maskUnits="userSpaceOnUse" x="7" y="5" width="7" height="12">
            <path d="M9.15 16.46v-5.078H7.4V9.365H9.15v-1.59c0-1.727 1.088-2.667 2.675-2.667.76 0 1.413.055 1.603.08v1.804h-1.1c-.864 0-1.03.4-1.03.983v1.39h1.947l-.267 2.017h-1.68v5.077" fill="#fff"/>
        </mask>
    </symbol>
    <!--Logo Twitter-->
    <symbol id="twitter" width="21" height="21" fill="none" xmlns="http://www.w3.org/2000/svg">
    <path d="M10.38 21c5.6 0 10.14-4.701 10.14-10.5S15.98 0 10.38 0C4.78 0 .24 4.701.24 10.5S4.78 21 10.38 21z" fill="#1590D8"/>
    <path d="M15.008 8.472c.007.1.007.202.007.302 0 3.076-2.26 6.62-6.392 6.62a6.191 6.191 0 01-3.45-1.045c.181.022.355.03.543.03 1.05 0 2.017-.368 2.789-.995-.988-.021-1.815-.691-2.1-1.613a2.299 2.299 0 001.015-.043c-1.03-.217-1.802-1.153-1.802-2.284v-.029c.3.173.647.281 1.016.296a2.347 2.347 0 01-1.002-1.938c0-.432.112-.828.306-1.174a6.316 6.316 0 004.633 2.435 2.714 2.714 0 01-.056-.533c0-1.282 1.002-2.327 2.246-2.327.647 0 1.232.281 1.642.735.508-.1.995-.295 1.426-.562-.167.54-.522.994-.988 1.282.452-.05.89-.18 1.294-.36a4.925 4.925 0 01-1.127 1.203z" fill="#fff"/>
        <mask id="a" maskUnits="userSpaceOnUse" x="5" y="6" width="12" height="10">
            <path d="M15.008 8.472c.007.1.007.202.007.302 0 3.076-2.26 6.62-6.392 6.62a6.191 6.191 0 01-3.45-1.045c.181.022.355.03.543.03 1.05 0 2.017-.368 2.789-.995-.988-.021-1.815-.691-2.1-1.613a2.299 2.299 0 001.015-.043c-1.03-.217-1.802-1.153-1.802-2.284v-.029c.3.173.647.281 1.016.296a2.347 2.347 0 01-1.002-1.938c0-.432.112-.828.306-1.174a6.316 6.316 0 004.633 2.435 2.714 2.714 0 01-.056-.533c0-1.282 1.002-2.327 2.246-2.327.647 0 1.232.281 1.642.735.508-.1.995-.295 1.426-.562-.167.54-.522.994-.988 1.282.452-.05.89-.18 1.294-.36a4.925 4.925 0 01-1.127 1.203z" fill="#fff"/>
        </mask>
    </symbol>
    <!--Logo YouTube-->
    <symbol id="youtube" width="21" height="21" fill="none" xmlns="http://www.w3.org/2000/svg">
        <path d="M10.62 21c5.6 0 10.14-4.701 10.14-10.5S16.22 0 10.62 0C5.02 0 .48 4.701.48 10.5S5.02 21 10.62 21z" fill="#D0021B"/>
        <path fill-rule="evenodd" clip-rule="evenodd" d="M14.407 7.182c.447.126.799.498.918.97.218.855.218 2.64.218 2.64s0 1.784-.218 2.64c-.12.471-.471.827-.918.954-.811.229-4.061.229-4.061.229s-3.25 0-4.06-.23a1.318 1.318 0 01-.92-.954c-.217-.855-.217-2.64-.217-2.64s0-1.784.218-2.64a1.34 1.34 0 01.918-.97c.811-.228 4.061-.228 4.061-.228s3.25 0 4.06.229zM9.283 9.17v3.24l2.716-1.62-2.716-1.62z" fill="#fff"/>
        <mask id="a" maskUnits="userSpaceOnUse" x="5" y="6" width="11" height="9">
            <path fill-rule="evenodd" clip-rule="evenodd" d="M14.407 7.182c.447.126.799.498.918.97.218.855.218 2.64.218 2.64s0 1.784-.218 2.64c-.12.471-.471.827-.918.954-.811.229-4.061.229-4.061.229s-3.25 0-4.06-.23a1.318 1.318 0 01-.92-.954c-.217-.855-.217-2.64-.217-2.64s0-1.784.218-2.64a1.34 1.34 0 01.918-.97c.811-.228 4.061-.228 4.061-.228s3.25 0 4.06.229zM9.283 9.17v3.24l2.716-1.62-2.716-1.62z" fill="#fff"/>
        </mask>
    </symbol>
    
</svg>